<?xml version="1.0" standalone="no"?>
<!DOCTYPE svg PUBLIC "-//W3C//DTD SVG 20010904//EN"
 "http://www.w3.org/TR/2001/REC-SVG-20010904/DTD/svg10.dtd">
<svg version="1.0" xmlns="http://www.w3.org/2000/svg"
 width="110.000000pt" height="70.000000pt" viewBox="0 0 110.000000 70.000000"
 preserveAspectRatio="xMidYMid meet">

<g transform="translate(0.000000,70.000000) scale(0.100000,-0.100000)"
fill="#ffffff" stroke="#ffffff">
<path d="M315 680 c22 -11 92 -36 155 -57 63 -21 117 -41 118 -45 2 -5 12 -8
23 -8 10 0 19 -4 19 -10 0 -5 -7 -10 -15 -10 -8 0 -15 -4 -15 -10 0 -5 -7 -10
-15 -10 -30 0 -66 -23 -60 -39 3 -8 3 -12 -1 -8 -7 7 -33 -21 -34 -36 0 -4 16
-15 35 -24 25 -12 35 -23 35 -40 0 -13 5 -23 10 -23 6 0 10 9 10 20 0 16 7 20
30 20 17 0 30 4 30 9 0 5 -13 11 -30 15 -16 3 -30 10 -30 15 0 6 12 6 31 -1
23 -8 33 -7 42 2 9 10 9 14 0 17 -7 3 -13 9 -13 15 0 6 6 6 15 -2 12 -10 15
-10 15 2 0 8 -10 20 -22 26 -22 11 -21 11 5 6 33 -7 36 3 5 16 -22 8 -22 9 -2
9 11 1 31 -11 45 -26 13 -16 17 -22 9 -15 -15 13 -34 17 -26 4 7 -11 -79 -175
-95 -181 -12 -3 -11 -1 1 15 9 12 5 11 -12 -5 l-27 -23 -27 53 c-44 88 -62
109 -95 109 -16 0 -29 -6 -30 -12 0 -7 -2 -24 -3 -38 -1 -14 -3 -48 -4 -77 -2
-48 -4 -52 -29 -55 -16 -2 -28 -7 -28 -13 0 -5 12 -11 28 -13 27 -3 27 -4 27
-73 l0 -69 35 0 35 0 0 70 c0 70 0 70 28 70 22 0 32 -9 56 -52 l29 -52 26 52
c36 74 51 68 51 -18 0 -63 2 -70 20 -70 19 0 20 8 23 183 l2 182 3 -182 c2
-176 3 -183 22 -183 19 0 20 7 22 178 l2 177 6 -180 c3 -99 7 -149 8 -111 l2
69 23 -44 c13 -24 38 -54 56 -66 63 -43 165 -39 225 8 24 19 26 27 26 90 l0
69 -59 0 c-33 0 -63 5 -66 10 -3 6 -33 10 -66 10 -32 0 -59 4 -59 10 0 5 13
24 28 41 37 42 110 52 152 21 27 -21 28 -21 45 -2 22 25 9 44 -42 61 -36 12
-133 8 -167 -6 -12 -5 -17 -5 -13 1 4 7 -6 9 -25 6 -35 -5 -52 13 -37 39 5 10
9 25 9 34 0 27 -17 8 -24 -27 l-7 -33 -45 50 c-26 28 -47 52 -47 55 -2 14 -27
29 -40 24 -8 -3 -47 11 -87 31 -42 21 -75 33 -79 27 -4 -6 -34 2 -76 19 -79
32 -135 39 -70 9z m503 -267 c-14 -16 -33 -41 -41 -58 l-16 -30 -1 58 0 57 42
0 42 0 -26 -27z m137 -123 c3 -11 3 -29 0 -40 -6 -18 -2 -20 34 -20 36 0 41
-3 41 -23 0 -47 -98 -64 -151 -26 -38 27 -37 39 5 39 33 0 66 21 66 41 0 5 -6
9 -14 9 -7 0 -19 7 -26 15 -16 20 -39 19 -62 -2 -16 -14 -18 -14 -18 0 0 18
18 24 77 26 33 1 43 -3 48 -19z"/>
<path d="M390 560 c-31 -4 -3 -5 65 -3 66 3 122 7 124 9 7 6 -129 1 -189 -6z"/>
<path d="M10 371 c0 -62 4 -91 13 -94 9 -4 9 -6 0 -6 -9 -1 -13 -24 -13 -81
l0 -80 29 0 c16 0 30 6 32 12 2 7 3 86 1 176 l-3 162 -29 0 -30 0 0 -89z"/>
<path d="M120 285 l0 -175 115 0 115 0 0 25 c0 25 -1 25 -80 25 l-80 0 0 45 0
45 38 0 c29 0 45 7 67 30 l29 30 -67 0 -67 0 0 45 0 45 81 0 80 0 -3 28 -3 27
-112 3 -113 3 0 -176z"/>
<path d="M300 265 c-10 -12 -10 -15 4 -15 9 0 16 7 16 15 0 8 -2 15 -4 15 -2
0 -9 -7 -16 -15z"/>
</g>
</svg>
