<?xml version="1.0" standalone="no"?>
<!DOCTYPE svg PUBLIC "-//W3C//DTD SVG 20010904//EN"
 "http://www.w3.org/TR/2001/REC-SVG-20010904/DTD/svg10.dtd">
<svg version="1.0" xmlns="http://www.w3.org/2000/svg"
 width="913.000000pt" height="579.000000pt" viewBox="0 0 913.000000 579.000000"
 preserveAspectRatio="xMidYMid meet">

<g transform="translate(0.000000,579.000000) scale(0.100000,-0.100000)"
fill="#000000" stroke="none">
<path d="M2272 5718 c3 -7 96 -47 209 -89 112 -42 294 -111 404 -153 291 -112
833 -305 1041 -371 98 -31 280 -88 404 -127 437 -136 720 -230 720 -239 0 -5
-35 -9 -77 -9 -179 0 -1149 -66 -1628 -110 -115 -11 -399 -35 -630 -55 -502
-42 -534 -45 -541 -56 -10 -16 47 -29 129 -29 45 0 215 9 377 20 162 10 437
28 610 40 173 11 493 31 710 45 217 14 548 39 734 56 186 16 371 29 410 27 70
-3 70 -3 80 -36 8 -27 13 -32 30 -28 31 9 162 20 156 13 -3 -3 -70 -22 -150
-41 -262 -66 -291 -78 -332 -143 l-20 -33 104 0 c254 0 504 -36 625 -90 51
-24 68 -38 97 -82 19 -29 51 -64 71 -77 20 -14 51 -45 68 -70 41 -60 52 -69
182 -142 123 -70 198 -119 192 -125 -2 -2 -81 34 -176 81 -94 47 -175 85 -181
85 -5 0 -38 26 -72 59 -155 144 -356 245 -579 292 -93 19 -125 20 -299 16
-156 -4 -218 -11 -310 -30 -197 -43 -278 -82 -315 -152 -11 -22 -36 -66 -54
-98 -49 -85 -30 -69 35 30 31 48 64 93 73 100 24 17 157 60 226 73 116 21 273
23 389 6 128 -19 157 -31 167 -69 12 -44 23 -377 13 -377 -5 0 -41 9 -79 21
-39 11 -82 20 -97 20 -33 0 -33 -6 -13 179 8 74 15 145 15 158 0 26 -26 30
-33 5 -3 -10 -22 -73 -43 -141 l-38 -123 22 -45 c25 -51 26 -92 8 -212 -11
-75 -10 -84 4 -92 9 -5 77 -19 151 -30 74 -12 175 -30 224 -41 50 -10 95 -19
102 -19 17 0 181 331 194 393 14 62 0 117 -38 146 -49 39 -52 33 -47 -106 3
-75 1 -134 -4 -142 -14 -20 -188 5 -197 28 -4 9 -10 85 -14 169 -7 140 -9 154
-31 177 -13 14 -21 28 -17 31 7 8 97 -19 188 -56 41 -16 81 -30 89 -30 30 0
159 -69 170 -91 20 -37 6 -87 -73 -251 -41 -86 -97 -203 -124 -260 -26 -57
-66 -134 -87 -173 -41 -73 -192 -361 -328 -625 -44 -85 -85 -158 -92 -162 -6
-4 -30 -8 -54 -8 -23 0 -59 -7 -79 -15 -19 -8 -37 -15 -39 -15 -11 0 -1 35 20
68 30 47 52 66 70 59 18 -7 58 38 91 104 14 26 52 94 86 149 33 56 58 104 56
106 -3 3 -67 -64 -143 -148 -76 -84 -185 -200 -241 -258 -56 -58 -111 -116
-122 -130 -17 -22 -21 -23 -34 -10 -8 8 -44 69 -79 135 -89 165 -239 440 -303
555 -29 52 -110 201 -180 330 -69 129 -133 242 -141 250 -12 13 -60 15 -304
15 -179 0 -293 -4 -299 -10 -6 -6 -11 -273 -12 -717 -2 -389 -5 -712 -9 -718
-3 -5 -98 -21 -211 -35 -286 -35 -288 -35 -294 -45 -7 -12 23 -151 36 -167 9
-10 63 -13 240 -13 126 0 230 -3 230 -7 1 -5 5 -271 8 -593 l6 -585 284 -3
c221 -2 286 1 293 10 4 7 8 273 8 591 -1 318 2 582 5 587 10 16 390 13 403 -2
11 -15 156 -283 337 -625 71 -134 132 -243 136 -243 9 0 78 130 279 525 144
281 181 348 199 359 5 4 48 3 95 0 l86 -7 2 -596 3 -596 162 -3 162 -2 0 1487
c-1 819 0 1496 0 1506 1 12 10 17 34 17 l34 0 6 -647 c4 -355 7 -1033 7 -1505
l0 -858 165 0 165 0 0 53 c1 28 0 428 -1 887 -1 459 -2 1092 -1 1405 1 314 2
580 2 593 0 29 10 28 50 -8 l33 -30 4 -1446 c1 -796 4 -1448 5 -1450 4 -3 58
-7 76 -5 9 1 12 131 13 614 1 345 5 599 9 582 5 -16 20 -79 35 -140 61 -257
189 -491 381 -695 187 -198 458 -337 766 -392 180 -33 514 -33 675 0 303 61
563 198 794 419 l81 77 -4 547 c-2 301 -6 551 -10 555 -4 3 -225 6 -490 6
l-483 -2 -25 53 c-29 58 -92 108 -163 129 -62 18 -788 12 -833 -7 -43 -18 -64
-52 -71 -118 -9 -87 2 -94 71 -47 32 22 77 45 100 52 51 15 660 12 689 -4 52
-28 94 -213 84 -370 -5 -79 -10 -97 -46 -164 -23 -42 -41 -78 -41 -81 0 -2
148 -3 330 -2 181 2 331 1 334 -2 4 -4 10 -316 7 -372 -1 -21 -15 -37 -63 -73
-103 -75 -215 -122 -373 -155 -90 -19 -345 -17 -428 4 -168 42 -354 144 -454
250 -79 83 -191 265 -178 287 4 6 134 10 334 10 l327 0 45 29 c65 41 139 161
154 251 9 48 -13 71 -95 100 -78 27 -123 57 -215 145 -97 93 -136 110 -255
110 -144 0 -201 -32 -327 -188 -74 -93 -72 -98 -48 115 36 312 124 510 314
699 95 94 164 139 297 192 120 48 230 67 383 67 193 0 348 -38 526 -128 74
-37 106 -61 179 -136 80 -82 90 -89 100 -72 39 66 172 233 235 294 l75 74 -78
74 c-139 132 -304 227 -506 292 -303 97 -717 105 -1052 21 -367 -92 -613 -265
-824 -580 -91 -138 -176 -321 -224 -488 -13 -42 -25 -70 -30 -65 -21 21 -10
974 11 974 4 0 32 -5 61 -11 40 -9 79 -9 163 1 218 24 444 68 472 92 7 5 22
39 34 75 19 59 20 66 6 81 -20 19 -42 4 -62 -45 -8 -18 -24 -37 -37 -42 -13
-4 -110 -18 -216 -30 l-194 -22 -66 59 c-61 54 -67 63 -66 98 0 43 49 261 68
309 12 28 13 29 23 10 6 -11 25 -80 42 -154 34 -145 54 -201 70 -201 16 0 15
4 -29 189 -45 190 -46 202 -24 237 26 38 12 130 -25 169 -20 22 -34 54 -50
117 -11 48 -21 92 -21 98 0 6 26 10 63 10 85 0 1039 -70 1367 -100 58 -6 125
-9 150 -9 l45 1 -55 9 c-122 18 -975 90 -1354 114 -148 9 -232 19 -237 26 -4
6 -12 38 -19 70 -9 40 -18 59 -28 59 -12 0 -13 -12 -8 -71 l7 -70 -43 6 c-93
13 -485 36 -711 42 -131 3 -234 9 -230 14 12 10 173 46 1313 290 437 93 718
154 905 194 110 24 322 69 470 100 359 75 454 99 479 124 l20 21 -37 0 c-20 0
-137 -22 -260 -49 -122 -28 -393 -86 -602 -130 -209 -44 -578 -125 -820 -180
-385 -87 -802 -176 -1060 -225 -274 -53 -461 -86 -487 -86 -42 0 -146 28 -188
50 -19 11 -75 35 -124 55 -145 59 -637 286 -942 435 -295 144 -370 177 -380
167 -4 -3 23 -53 60 -110 64 -101 79 -134 54 -124 -7 3 -85 35 -173 72 -88 37
-234 96 -325 130 -91 35 -275 106 -410 160 -235 93 -249 97 -350 106 -163 13
-312 11 -308 -3z m3493 -1033 c465 -29 667 -43 671 -48 7 -6 44 -204 44 -233
0 -21 -3 -24 -21 -19 -30 10 -61 -22 -54 -55 3 -15 1 -56 -4 -92 -15 -90 -99
-348 -117 -355 -8 -3 -40 14 -72 38 -123 93 -248 229 -352 384 -111 166 -234
265 -369 300 -45 11 -46 12 -49 53 l-3 42 38 0 c21 0 151 -7 288 -15z"/>
<path d="M5260 4897 c-95 -22 -104 -38 -32 -61 85 -28 134 -30 185 -8 26 12
47 26 47 31 0 16 -55 41 -102 46 -24 2 -68 -1 -98 -8z"/>
<path d="M4774 4424 c-65 -51 -75 -64 -46 -64 47 0 79 21 96 62 8 23 14 43 13
45 -2 1 -30 -18 -63 -43z"/>
<path d="M4670 4249 c-111 -10 -130 -18 -172 -76 -39 -53 -118 -185 -118 -196
0 -4 42 -5 93 -1 81 6 255 -6 338 -23 27 -5 27 -4 75 141 27 80 45 148 42 152
-10 10 -163 12 -258 3z"/>
<path d="M5015 4138 c-5 -57 -9 -128 -9 -158 l-1 -55 60 -16 c33 -9 63 -15 67
-13 7 4 0 252 -8 292 -4 21 -26 34 -78 48 -23 5 -23 3 -31 -98z"/>
<path d="M4398 4177 c-51 -30 -211 -257 -188 -265 16 -6 87 37 113 68 26 30
137 205 137 215 0 11 -27 4 -62 -18z"/>
<path d="M5335 4028 c3 -62 9 -121 12 -131 5 -18 74 -56 102 -57 11 0 13 20 9
108 -3 60 -11 118 -17 130 -11 21 -78 62 -102 62 -8 0 -9 -30 -4 -112z"/>
<path d="M4354 3920 c-80 -9 -151 -36 -206 -81 -21 -16 -38 -25 -38 -20 0 5 4
13 10 16 5 3 15 16 21 28 12 22 12 22 -9 3 -59 -52 -78 -157 -42 -232 28 -56
78 -90 229 -149 115 -46 126 -53 129 -78 3 -25 11 -29 103 -58 110 -34 113
-36 125 -127 5 -37 2 -55 -10 -74 -9 -14 -21 -41 -27 -59 -32 -110 94 -258
160 -188 19 21 21 32 18 101 -2 43 -10 84 -17 93 -14 17 -3 71 26 128 14 27
15 27 117 27 160 0 189 15 85 44 -132 36 -394 119 -418 132 -25 14 -24 15 10
9 19 -4 89 -21 155 -40 66 -18 152 -41 190 -50 39 -8 104 -27 146 -41 45 -15
91 -24 114 -22 35 3 44 9 77 58 20 30 37 62 37 70 1 12 -26 19 -121 34 -117
17 -428 73 -456 82 -9 2 5 21 36 52 35 35 52 60 60 94 14 55 15 88 3 88 -20 0
-77 -25 -84 -37 -13 -21 -27 -5 -27 32 0 31 2 34 49 45 27 6 57 17 65 23 15
11 15 14 1 34 -38 54 -295 86 -511 63z"/>
<path d="M66 3738 c-7 -22 -16 -1361 -10 -1400 6 -34 11 -39 53 -52 140 -46
462 -105 497 -92 12 5 14 117 12 770 -2 420 -7 768 -11 773 -5 4 -128 9 -273
11 -210 2 -265 0 -268 -10z"/>
<path d="M1010 3740 c-13 -8 -15 -177 -12 -1442 2 -788 7 -1437 11 -1441 9 -9
1164 -16 1609 -10 l283 4 -3 209 c-3 177 -6 212 -19 225 -15 15 -83 17 -667
18 -358 1 -654 6 -659 10 -13 14 -12 711 1 719 6 4 163 8 349 8 186 0 346 4
355 9 9 5 80 78 158 163 217 236 213 230 220 276 l6 41 -540 3 c-297 2 -544 7
-549 11 -4 5 -8 169 -8 365 l0 357 595 6 c327 3 628 7 668 8 l72 1 0 219 c0
186 -2 222 -16 235 -14 14 -112 16 -927 16 -559 0 -918 -4 -927 -10z"/>
<path d="M2501 2153 l-106 -108 139 -3 c76 -1 141 -1 143 2 2 2 -6 52 -19 110
-16 75 -27 106 -37 106 -8 0 -62 -48 -120 -107z"/>
<path d="M60 1545 c0 -644 1 -686 18 -693 9 -4 134 -7 277 -7 l260 1 3 657 c2
621 1 657 -15 658 -92 2 -376 38 -470 60 -23 5 -49 9 -57 9 -14 0 -16 -72 -16
-685z"/>
<path d="M816 399 c17 -19 19 -38 19 -164 0 -126 -2 -145 -19 -164 l-19 -21
63 0 63 0 -19 21 c-17 19 -19 38 -19 164 0 127 2 145 19 164 l19 21 -63 0 -63
0 19 -21z"/>
<path d="M970 415 c0 -3 7 -17 16 -30 13 -19 15 -49 12 -164 -3 -126 -5 -142
-23 -155 -19 -14 -15 -15 43 -16 l62 0 -15 24 c-12 19 -15 49 -13 147 l3 124
85 -145 86 -145 49 -3 c48 -3 49 -3 32 16 -25 27 -25 306 0 334 15 17 14 18
-40 18 -32 0 -57 -2 -57 -3 0 -2 7 -18 15 -35 12 -23 15 -58 13 -148 l-3 -118
-89 152 -90 152 -43 0 c-24 0 -43 -2 -43 -5z"/>
<path d="M1435 406 c-17 -7 -36 -25 -43 -40 -32 -71 0 -117 101 -146 38 -10
75 -24 83 -31 17 -14 18 -63 2 -77 -43 -34 -133 -25 -182 19 l-34 29 10 -39
c8 -33 17 -42 49 -55 49 -20 131 -21 168 -2 31 17 51 54 51 97 0 43 -44 81
-111 98 -76 19 -101 36 -97 69 6 56 113 67 174 19 l27 -21 -6 24 c-4 14 -7 30
-7 37 0 30 -129 44 -185 19z"/>
<path d="M1680 369 c-7 -27 -9 -53 -6 -56 3 -4 6 -1 6 5 0 26 40 52 80 52 l40
0 0 -138 c0 -108 -3 -142 -16 -160 -15 -22 -15 -22 41 -22 56 0 56 0 41 22
-13 18 -16 52 -16 160 l0 138 44 0 c36 0 48 -5 65 -26 23 -30 26 -18 10 39
l-10 37 -133 0 -134 0 -12 -51z"/>
<path d="M2036 258 c-37 -89 -76 -173 -88 -185 l-21 -23 69 0 c59 1 67 2 52
14 -21 15 -22 31 -7 75 l11 31 79 0 78 0 12 -40 c11 -35 10 -42 -6 -60 -18
-20 -18 -20 184 -20 226 0 208 -6 225 80 l6 35 -20 -33 -20 -32 -96 0 -96 0 4
139 c3 119 6 142 22 160 l19 21 -63 0 -63 0 19 -21 c17 -19 19 -38 19 -164 0
-106 -3 -146 -14 -159 -11 -13 -16 -14 -29 -4 -17 14 -26 34 -102 221 -49 119
-54 127 -80 127 -26 0 -31 -8 -94 -162z m122 34 c12 -32 22 -63 22 -70 0 -8
-19 -12 -56 -12 -31 0 -54 3 -52 8 2 4 14 35 28 70 14 34 27 62 30 62 3 0 15
-26 28 -58z"/>
<path d="M2745 298 c-58 -149 -81 -196 -108 -225 l-20 -23 68 0 c66 0 68 0 51
19 -15 17 -16 24 -5 60 l12 41 77 0 c73 0 77 -1 88 -25 15 -33 15 -68 0 -83
-9 -9 2 -12 50 -12 l63 0 -22 29 c-11 15 -49 97 -83 182 -60 147 -64 154 -92
157 -30 3 -31 1 -79 -120z m109 -17 c14 -36 26 -66 26 -68 0 -2 -25 -3 -56 -3
-54 0 -56 1 -50 24 9 35 46 120 50 115 2 -2 16 -33 30 -68z"/>
<path d="M3104 401 c-62 -28 -88 -78 -88 -166 0 -57 4 -78 23 -109 30 -47 88
-75 157 -76 91 0 134 26 134 81 0 22 -1 22 -30 -6 -55 -53 -175 -42 -215 19
-23 35 -30 105 -15 150 28 87 153 114 230 49 30 -24 30 -25 30 -3 0 36 -19 59
-58 70 -56 15 -122 12 -168 -9z"/>
<path d="M3404 398 c13 -18 16 -52 16 -163 0 -111 -3 -145 -16 -163 -15 -22
-15 -22 40 -22 l54 0 -15 30 c-19 39 -16 311 5 318 30 10 7 22 -44 22 -55 0
-55 0 -40 -22z"/>
<path d="M3662 413 c-13 -3 -38 -20 -57 -38 -43 -44 -61 -119 -45 -190 22 -98
81 -141 180 -132 69 6 99 24 129 78 32 57 28 168 -9 222 -38 56 -109 77 -198
60z m138 -61 c57 -43 60 -180 4 -233 -37 -35 -121 -34 -158 0 -48 45 -58 151
-20 209 34 52 121 63 174 24z"/>
<path d="M3950 417 c0 -2 7 -18 16 -36 24 -48 17 -280 -10 -310 l-19 -21 63 0
c61 0 63 1 46 19 -14 15 -16 38 -14 146 l3 127 85 -143 85 -144 50 -3 49 -3
-19 21 c-18 20 -20 37 -20 165 0 126 2 145 19 164 l19 21 -63 0 c-63 0 -63 0
-45 -20 15 -17 20 -42 23 -133 2 -62 3 -121 1 -132 -3 -14 -32 27 -94 133
l-90 152 -42 0 c-24 0 -43 -2 -43 -3z"/>
<path d="M4364 398 c13 -18 16 -52 16 -163 0 -111 -3 -145 -16 -163 l-15 -22
140 0 c154 0 141 -6 156 70 l7 35 -22 -27 c-21 -27 -25 -28 -111 -28 l-89 0 0
55 0 55 60 0 c46 0 61 -4 69 -17 8 -14 10 -4 10 42 0 46 -2 56 -10 43 -8 -14
-23 -18 -69 -18 l-60 0 0 55 0 55 89 0 c86 0 90 -1 111 -27 l22 -28 -7 35
c-15 76 -2 70 -156 70 l-140 0 15 -22z"/>
<path d="M4759 397 c-29 -19 -34 -29 -37 -67 -4 -60 19 -83 108 -110 73 -22
100 -40 100 -68 -1 -75 -135 -83 -209 -12 l-23 23 7 -34 c4 -19 12 -39 17 -46
33 -40 180 -43 222 -4 31 29 39 74 22 115 -14 35 -46 51 -144 76 -30 8 -46 18
-55 37 -10 23 -8 28 16 49 43 37 113 29 166 -19 21 -19 23 -19 18 -4 -4 10 -7
27 -7 38 0 48 -141 66 -201 26z"/>
<path d="M5166 399 c17 -19 19 -38 19 -164 0 -126 -2 -145 -19 -164 l-19 -21
146 0 145 0 7 32 c4 18 9 42 12 53 4 16 1 14 -16 -8 -21 -26 -26 -27 -112 -27
l-89 0 0 55 0 55 54 0 c45 0 58 -4 70 -22 15 -21 16 -19 15 47 0 58 -2 66 -11
48 -10 -20 -19 -23 -70 -23 l-58 0 0 55 0 55 89 0 c86 0 90 -1 111 -27 12 -16
19 -20 16 -11 -2 9 -8 33 -12 52 l-6 36 -146 0 -145 0 19 -21z"/>
<path d="M5585 411 c-48 -20 -73 -77 -54 -122 13 -33 42 -51 109 -69 67 -17
90 -36 90 -70 0 -72 -127 -80 -204 -12 -18 16 -19 16 -13 -8 4 -14 7 -30 7
-36 0 -19 76 -44 131 -44 86 0 129 34 129 104 0 53 -33 83 -115 106 -85 24
-103 39 -89 77 18 52 115 56 174 7 16 -14 28 -20 26 -12 -2 7 -7 25 -10 40 -4
18 -16 29 -37 37 -37 13 -115 14 -144 2z"/>
<path d="M5840 418 c0 -3 7 -19 16 -37 12 -25 15 -58 12 -167 -3 -121 -5 -137
-22 -150 -18 -13 -14 -14 44 -14 60 0 62 1 47 18 -12 13 -17 37 -17 75 l0 57
75 0 c67 0 79 3 100 24 48 48 44 131 -8 170 -23 17 -46 21 -138 24 -60 3 -109
2 -109 0z m222 -65 c24 -21 23 -68 -2 -93 -16 -16 -33 -20 -80 -20 l-60 0 0
65 0 65 62 0 c43 0 67 -5 80 -17z"/>
<path d="M6183 402 c14 -16 17 -43 17 -167 0 -124 -3 -151 -17 -167 -16 -17
-11 -18 125 -18 77 0 143 3 146 8 2 4 7 25 11 47 7 39 7 39 -10 18 -15 -21
-24 -23 -111 -23 l-94 0 0 55 0 55 59 0 c51 0 62 -3 75 -22 15 -21 16 -19 16
47 0 66 -1 68 -16 47 -13 -19 -24 -22 -75 -22 l-59 0 0 55 0 55 90 0 c79 0 93
-3 111 -21 l22 -22 -8 39 c-4 21 -9 42 -11 46 -3 5 -69 8 -146 8 -136 0 -141
-1 -125 -18z"/>
<path d="M6634 409 c-41 -12 -91 -69 -100 -114 -3 -20 -4 -61 -2 -91 5 -58 24
-93 71 -128 49 -36 195 -32 225 7 5 7 12 27 16 46 l6 33 -28 -30 c-32 -34 -77
-47 -137 -37 -80 11 -129 97 -105 184 27 101 171 135 242 59 l29 -31 -6 29
c-12 51 -14 55 -50 69 -38 17 -113 18 -161 4z"/>
<path d="M6916 399 c17 -19 19 -38 19 -164 0 -126 -2 -145 -19 -164 l-19 -21
124 0 c105 1 121 3 107 14 -21 15 -22 31 -7 75 l11 31 79 0 78 0 12 -40 c11
-35 10 -42 -6 -60 l-18 -20 203 2 204 3 6 25 c4 14 10 39 14 55 l7 30 -20 -32
-21 -33 -96 0 -96 0 4 139 c3 119 6 142 22 160 l19 21 -63 0 -63 0 19 -21 c16
-18 18 -38 18 -164 0 -105 -3 -147 -13 -159 -11 -13 -16 -14 -29 -4 -17 14
-26 34 -102 221 -49 120 -54 127 -80 127 -31 0 -30 1 -125 -237 -20 -50 -44
-98 -54 -107 -17 -15 -19 -15 -32 0 -11 13 -14 52 -14 159 0 126 2 145 19 164
l19 21 -63 0 -63 0 19 -21z m322 -107 c12 -32 22 -63 22 -70 0 -8 -19 -12 -56
-12 -31 0 -54 3 -52 8 2 4 14 35 28 70 14 34 27 62 30 62 3 0 15 -26 28 -58z"/>
<path d="M7750 413 c0 -5 7 -17 15 -27 12 -15 15 -51 15 -152 0 -118 -2 -134
-21 -158 l-20 -26 144 0 145 0 7 32 c4 18 9 42 12 53 4 16 1 14 -16 -7 -21
-27 -26 -28 -112 -28 l-89 0 0 55 0 55 60 0 c54 0 62 -3 70 -22 6 -17 9 -7 9
42 0 49 -2 61 -10 48 -8 -14 -23 -18 -69 -18 l-60 0 0 55 0 55 89 0 c86 0 91
-1 112 -27 17 -22 20 -24 16 -8 -3 11 -8 35 -12 53 l-7 32 -139 0 c-76 0 -139
-3 -139 -7z"/>
<path d="M8175 411 c-49 -21 -71 -76 -50 -126 13 -33 12 -33 153 -82 23 -8 42
-18 42 -23 0 -5 3 -15 6 -24 10 -25 -40 -66 -81 -66 -40 0 -100 22 -128 48
-18 16 -18 15 -11 -13 4 -17 11 -35 16 -42 17 -22 79 -35 141 -31 76 6 107 35
107 102 0 56 -29 83 -117 107 -87 24 -114 57 -77 93 37 37 114 32 165 -11 34
-29 33 -31 14 34 -3 12 -19 26 -37 32 -36 13 -114 13 -143 2z"/>
</g>
</svg>
